<svg xmlns="http://www.w3.org/2000/svg" xmlns:xlink="http://www.w3.org/1999/xlink"><symbol id="1" viewBox="0 0 511.92 511.92">
<g>
	<g>
		<path d="M505.77,46.551c-4.773-3.978-11.344-5.013-17.109-2.697L56.482,218.293c-4.371,1.767-6.482,6.744-4.715,11.115
			s6.744,6.482,11.115,4.715l412.86-166.588l-204.8,241.545c-3.047,3.596-2.602,8.981,0.994,12.028
			c3.596,3.047,8.981,2.602,12.028-0.994L491.861,74.899l-27.785,139.469l-27.989,187.025c-0.384,2.617-1.96,4.909-4.267,6.204
			c-2.212,1.235-4.877,1.358-7.194,0.333l-116.369-45.756l-55.842-23.381c-4.345-1.823-9.346,0.22-11.17,4.565
			c-0.186,0.585-0.307,1.189-0.358,1.801h-0.205l-27.725,107.059l-39.782-138.965l207.36-154.453
			c2.65-1.741,4.117-4.807,3.808-7.963c-0.309-3.156-2.342-5.88-5.279-7.074c-2.937-1.194-6.295-0.661-8.718,1.384L161.92,300.324
			L11.682,239.507c-4.36-1.729-9.298,0.384-11.057,4.732c-1.759,4.348,0.321,9.3,4.657,11.089l151.04,61.116l40.277,140.612
			c2.097,7.263,8.756,12.254,16.316,12.228h0.196c4.121-0.074,8.07-1.663,11.093-4.463c0.298-0.179,0.583-0.379,0.853-0.597
			l82.483-84.343l110.592,43.853c7.107,3.019,15.214,2.565,21.939-1.229c6.93-3.844,11.682-10.689,12.86-18.526l27.913-186.675
			l30.72-154.121C512.842,56.995,510.616,50.605,505.77,46.551z M236.877,427.786l18.014-69.436l28.211,11.844l7.27,2.884
			L236.877,427.786z"/>
	</g>
</g>
<g>
</g>
<g>
</g>
<g>
</g>
<g>
</g>
<g>
</g>
<g>
</g>
<g>
</g>
<g>
</g>
<g>
</g>
<g>
</g>
<g>
</g>
<g>
</g>
<g>
</g>
<g>
</g>
<g>
</g>
</symbol><symbol id="2" viewBox="0 0 512 512">
<g>
	<g>
		<g>
			<path d="M142.592,62.208c-0.813-0.777-1.77-1.388-2.816-1.801c-3.18-1.334-6.849-0.624-9.301,1.801
				c-0.753,0.827-1.359,1.776-1.792,2.807c-0.438,1.029-0.67,2.133-0.683,3.251c0.034,2.259,0.917,4.422,2.475,6.059l1.28,1.05
				c0.475,0.326,0.992,0.587,1.536,0.777c0.487,0.239,1.003,0.411,1.536,0.512c0.565,0.083,1.135,0.129,1.707,0.137
				c1.115-0.017,2.216-0.249,3.243-0.683c1.03-0.439,1.982-1.045,2.816-1.792c1.557-1.637,2.441-3.8,2.475-6.059
				c0.03-1.122-0.204-2.236-0.683-3.251C143.951,63.984,143.345,63.035,142.592,62.208z"/>
			<path d="M142.592,156.075c-0.815-0.774-1.771-1.385-2.816-1.801c-3.18-1.334-6.849-0.624-9.301,1.801
				c-0.753,0.827-1.359,1.776-1.792,2.807c-0.438,1.029-0.67,2.133-0.683,3.251c0.034,2.259,0.917,4.422,2.475,6.059l1.28,1.041
				c0.475,0.326,0.992,0.587,1.536,0.776c0.487,0.239,1.003,0.411,1.536,0.512c0.565,0.086,1.135,0.135,1.707,0.145
				c1.115-0.017,2.216-0.249,3.243-0.683c1.03-0.439,1.982-1.045,2.816-1.792c1.557-1.637,2.441-3.8,2.475-6.059
				c0.03-1.122-0.204-2.236-0.683-3.251C143.951,157.851,143.345,156.902,142.592,156.075z"/>
			<path d="M142.592,249.941c-0.815-0.774-1.771-1.385-2.816-1.801c-3.18-1.334-6.849-0.624-9.301,1.801
				c-0.753,0.827-1.359,1.776-1.792,2.807c-0.438,1.029-0.67,2.133-0.683,3.251c0.033,2.259,0.917,4.422,2.475,6.059l1.28,1.033
				c0.475,0.326,0.992,0.587,1.536,0.777c0.487,0.239,1.003,0.411,1.536,0.512c0.564,0.093,1.135,0.145,1.707,0.154
				c1.115-0.017,2.216-0.249,3.243-0.683c1.032-0.436,1.984-1.042,2.816-1.792c1.558-1.636,2.442-3.8,2.475-6.059
				c0.029-1.122-0.205-2.236-0.683-3.251C143.951,251.718,143.345,250.768,142.592,249.941z"/>
			<path d="M142.592,343.808c-0.816-0.771-1.772-1.38-2.816-1.792c-3.178-1.336-6.847-0.629-9.301,1.792
				c-0.753,0.83-1.359,1.782-1.792,2.816c-0.437,1.026-0.669,2.128-0.683,3.243c0.033,2.259,0.917,4.422,2.475,6.059l1.28,1.033
				c0.476,0.323,0.992,0.581,1.536,0.768c0.484,0.247,1.001,0.419,1.536,0.512c0.564,0.096,1.135,0.15,1.707,0.162
				c1.115-0.013,2.217-0.245,3.243-0.683c1.034-0.433,1.986-1.039,2.816-1.792c1.558-1.636,2.442-3.8,2.475-6.059
				c0.029-1.119-0.204-2.23-0.683-3.243C143.951,345.59,143.345,344.638,142.592,343.808z"/>
			<path d="M426.667,0h-307.2c-14.138,0-25.6,11.461-25.6,25.6v34.133h-25.6c-4.713,0-8.533,3.82-8.533,8.533
				s3.82,8.533,8.533,8.533h25.6v76.8h-25.6c-4.713,0-8.533,3.82-8.533,8.533s3.82,8.533,8.533,8.533h25.6v76.8h-25.6
				c-4.713,0-8.533,3.82-8.533,8.533s3.82,8.533,8.533,8.533h25.6v76.8h-25.6c-4.713,0-8.533,3.82-8.533,8.533
				s3.82,8.533,8.533,8.533h25.6v76.8h-25.6c-4.713,0-8.533,3.82-8.533,8.533s3.82,8.533,8.533,8.533h25.6V486.4
				c0,14.138,11.462,25.6,25.6,25.6h307.2c14.138,0,25.6-11.461,25.6-25.6V25.6C452.267,11.461,440.805,0,426.667,0z M435.2,486.4
				c0,4.713-3.82,8.533-8.533,8.533h-307.2c-4.713,0-8.533-3.82-8.533-8.533V25.6c0-4.713,3.82-8.533,8.533-8.533h307.2
				c4.713,0,8.533,3.82,8.533,8.533V486.4z"/>
			<path d="M142.592,437.675c-0.816-0.771-1.772-1.38-2.816-1.792c-3.178-1.336-6.847-0.629-9.301,1.792
				c-0.753,0.83-1.359,1.782-1.792,2.816c-0.437,1.026-0.669,2.128-0.683,3.243c0.033,2.259,0.917,4.422,2.475,6.059l1.28,1.024
				c0.476,0.323,0.992,0.581,1.536,0.768c0.484,0.247,1.001,0.419,1.536,0.512c0.564,0.099,1.134,0.156,1.707,0.171
				c1.115-0.013,2.217-0.245,3.243-0.683c1.034-0.433,1.986-1.039,2.816-1.792c1.558-1.636,2.442-3.8,2.475-6.059
				c0.029-1.119-0.204-2.23-0.683-3.243C143.951,439.457,143.345,438.505,142.592,437.675z"/>
			<path d="M278.468,181.922c0.685-2.291,2.939-3.741,5.308-3.413l30.345,3.789c11.416,1.404,21.987-6.219,24.26-17.493
				l6.938-34.654l8.269-41.335c2.294-11.493-4.843-22.761-16.213-25.6l-30.49-7.62c-10.317-2.668-21.265-1.246-30.558,3.968
				C243.695,78.106,204.8,127.266,204.8,256s38.895,177.894,71.509,196.471c6.126,3.475,13.053,5.292,20.096,5.274
				c3.528-0.005,7.041-0.443,10.462-1.306l30.49-7.62c11.371-2.839,18.507-14.107,16.213-25.6l-15.206-75.947
				c-2.273-11.275-12.845-18.898-24.26-17.493l-30.345,3.789c-2.367,0.316-4.614-1.129-5.308-3.413l-1.143-3.942
				c-6.685-22.774-9.523-46.504-8.397-70.212c-1.112-23.684,1.731-47.387,8.414-70.135L278.468,181.922z M262.025,177.254
				l-1.101,3.789c-7.171,24.307-10.239,49.64-9.079,74.957c-1.152,25.318,1.926,50.651,9.105,74.957l1.101,3.789
				c2.921,10.446,13.091,17.145,23.842,15.701l30.345-3.789c2.547-0.309,4.903,1.393,5.41,3.908l15.206,75.947
				c0.511,2.57-1.085,5.089-3.627,5.726l-30.49,7.629c-6.058,1.6-12.501,0.796-17.98-2.244
				c-40.559-23.074-62.891-87.578-62.891-181.623s22.332-158.549,62.891-181.641c3.559-2.007,7.579-3.051,11.665-3.029
				c2.129,0.002,4.25,0.266,6.315,0.785l30.49,7.629c2.541,0.633,4.137,3.149,3.627,5.717l-15.206,75.947
				c-0.514,2.51-2.865,4.209-5.41,3.908l-30.37-3.763C275.115,160.106,264.942,166.806,262.025,177.254z"/>
		</g>
	</g>
</g>
<g>
</g>
<g>
</g>
<g>
</g>
<g>
</g>
<g>
</g>
<g>
</g>
<g>
</g>
<g>
</g>
<g>
</g>
<g>
</g>
<g>
</g>
<g>
</g>
<g>
</g>
<g>
</g>
<g>
</g>
</symbol><symbol id="call" viewBox="0 0 512.076 512.076">
<g transform="translate(-1 -1)">
	<g>
		<g>
			<path d="M499.639,396.039l-103.646-69.12c-13.153-8.701-30.784-5.838-40.508,6.579l-30.191,38.818
				c-3.88,5.116-10.933,6.6-16.546,3.482l-5.743-3.166c-19.038-10.377-42.726-23.296-90.453-71.04s-60.672-71.45-71.049-90.453
				l-3.149-5.743c-3.161-5.612-1.705-12.695,3.413-16.606l38.792-30.182c12.412-9.725,15.279-27.351,6.588-40.508l-69.12-103.646
				C109.12,1.056,91.25-2.966,77.461,5.323L34.12,31.358C20.502,39.364,10.511,52.33,6.242,67.539
				c-15.607,56.866-3.866,155.008,140.706,299.597c115.004,114.995,200.619,145.92,259.465,145.92
				c13.543,0.058,27.033-1.704,40.107-5.239c15.212-4.264,28.18-14.256,36.181-27.878l26.061-43.315
				C517.063,422.832,513.043,404.951,499.639,396.039z M494.058,427.868l-26.001,43.341c-5.745,9.832-15.072,17.061-26.027,20.173
				c-52.497,14.413-144.213,2.475-283.008-136.32S8.29,124.559,22.703,72.054c3.116-10.968,10.354-20.307,20.198-26.061
				l43.341-26.001c5.983-3.6,13.739-1.855,17.604,3.959l37.547,56.371l31.514,47.266c3.774,5.707,2.534,13.356-2.85,17.579
				l-38.801,30.182c-11.808,9.029-15.18,25.366-7.91,38.332l3.081,5.598c10.906,20.002,24.465,44.885,73.967,94.379
				c49.502,49.493,74.377,63.053,94.37,73.958l5.606,3.089c12.965,7.269,29.303,3.898,38.332-7.91l30.182-38.801
				c4.224-5.381,11.87-6.62,17.579-2.85l103.637,69.12C495.918,414.126,497.663,421.886,494.058,427.868z"/>
			<path d="M291.161,86.39c80.081,0.089,144.977,64.986,145.067,145.067c0,4.713,3.82,8.533,8.533,8.533s8.533-3.82,8.533-8.533
				c-0.099-89.503-72.63-162.035-162.133-162.133c-4.713,0-8.533,3.82-8.533,8.533S286.448,86.39,291.161,86.39z"/>
			<path d="M291.161,137.59c51.816,0.061,93.806,42.051,93.867,93.867c0,4.713,3.821,8.533,8.533,8.533
				c4.713,0,8.533-3.82,8.533-8.533c-0.071-61.238-49.696-110.863-110.933-110.933c-4.713,0-8.533,3.82-8.533,8.533
				S286.448,137.59,291.161,137.59z"/>
			<path d="M291.161,188.79c23.552,0.028,42.638,19.114,42.667,42.667c0,4.713,3.821,8.533,8.533,8.533s8.533-3.82,8.533-8.533
				c-0.038-32.974-26.759-59.696-59.733-59.733c-4.713,0-8.533,3.82-8.533,8.533S286.448,188.79,291.161,188.79z"/>
		</g>
	</g>
</g>
<g>
</g>
<g>
</g>
<g>
</g>
<g>
</g>
<g>
</g>
<g>
</g>
<g>
</g>
<g>
</g>
<g>
</g>
<g>
</g>
<g>
</g>
<g>
</g>
<g>
</g>
<g>
</g>
<g>
</g>
</symbol><symbol id="tbathtub" viewBox="0 0 512 512">
<g transform="translate(1 1)">
	<g>
		<g>
			<path d="M485.4,272.067h-8.533v-179.2c0-42.667-34.133-76.8-76.8-76.8c-37.77,0-64.935,28.006-67.974,69.041
				c-19.829,3.748-34.426,20.826-34.426,41.892c0,5.12,3.413,8.533,8.533,8.533h68.267c5.12,0,8.533-3.413,8.533-8.533
				c0-20.833-14.274-37.769-33.767-41.767c2.55-27.116,18.836-52.1,50.834-52.1c33.28,0,59.733,26.453,59.733,59.733v179.2H202.975
				c-3.86-19.681-20.878-34.133-41.841-34.133c-8.533-10.24-20.48-17.067-34.133-17.067c-16.213,0-30.72,9.387-37.547,23.04
				c-6.827-3.413-14.507-5.973-22.187-5.973c-20.963,0-37.981,14.452-41.841,34.133H24.6c-14.507,0-25.6,11.093-25.6,25.6
				c0,14.507,11.093,25.6,25.6,25.6h10.255l23.025,91.307c6.827,26.453,30.72,45.227,58.027,45.227h6.827l-11.093,22.187
				c-2.56,4.267-0.853,9.387,3.413,11.093c0.853,0.853,2.56,0.853,3.413,0.853c3.413,0,5.973-1.707,7.68-4.267L141.08,459.8h236.8
				l14.507,29.013c1.707,3.413,4.267,5.12,7.68,5.12c1.707,0,2.56,0,3.413-1.707c3.413-1.707,5.12-6.827,3.413-11.093
				l-10.689-21.379c26.419-0.938,49.266-19.39,55.916-44.328l23.24-92.16h10.04c14.507,0,25.6-11.093,25.6-25.6
				C511,283.16,499.907,272.067,485.4,272.067z M365.08,118.467h-48.64c3.413-10.24,13.653-17.067,24.747-17.067
				S361.667,108.227,365.08,118.467z M67.267,255c7.68,0,14.507,3.413,20.48,9.387c1.707,2.56,5.12,3.413,8.533,2.56
				s5.12-3.413,5.973-6.827c2.56-12.8,12.8-22.187,25.6-22.187c9.387,0,17.92,4.267,22.187,12.8c1.707,3.413,5.973,5.12,9.387,4.267
				c0.853,0,1.707,0,2.56,0c11.093,0,20.48,6.827,23.893,17.067H43.373C46.787,261.827,56.173,255,67.267,255z M436.76,410.307
				c-5.12,18.773-22.187,32.427-41.813,32.427H116.76c-19.627,0-36.693-13.653-41.813-32.427l-22.187-87.04h404.48L436.76,410.307z
				 M485.4,306.2h-17.067H41.667H24.6c-5.12,0-8.533-3.413-8.533-8.533s3.413-8.533,8.533-8.533h8.533h162.133H485.4
				c5.12,0,8.533,3.413,8.533,8.533S490.52,306.2,485.4,306.2z"/>
			<path d="M306.2,173.933c5.12,0,8.533-3.413,8.533-8.533v-4.267c0-5.12-3.413-8.533-8.533-8.533s-8.533,3.413-8.533,8.533v4.267
				C297.667,170.52,301.08,173.933,306.2,173.933z"/>
			<path d="M306.2,213.187c5.12,0,8.533-4.267,8.533-8.533v-9.387c0-5.12-3.413-8.533-8.533-8.533s-8.533,3.413-8.533,8.533v9.387
				C297.667,209.773,301.08,213.187,306.2,213.187z"/>
			<path d="M306.2,246.467c5.12,0,8.533-3.413,8.533-8.533v-4.267c0-5.12-3.413-8.533-8.533-8.533s-8.533,3.413-8.533,8.533v4.267
				C297.667,243.053,301.08,246.467,306.2,246.467z"/>
			<path d="M340.333,173.933c5.12,0,8.533-3.413,8.533-8.533v-4.267c0-5.12-3.413-8.533-8.533-8.533
				c-5.12,0-8.533,3.413-8.533,8.533v4.267C331.8,170.52,335.213,173.933,340.333,173.933z"/>
			<path d="M331.8,204.653c0,5.12,3.413,8.533,8.533,8.533c5.12,0,8.533-4.267,8.533-8.533v-9.387c0-5.12-3.413-8.533-8.533-8.533
				c-5.12,0-8.533,3.413-8.533,8.533V204.653z"/>
			<path d="M331.8,237.933c0,5.12,3.413,8.533,8.533,8.533c5.12,0,8.533-3.413,8.533-8.533v-4.267c0-5.12-3.413-8.533-8.533-8.533
				c-5.12,0-8.533,3.413-8.533,8.533V237.933z"/>
			<path d="M374.467,173.933c5.12,0,8.533-3.413,8.533-8.533v-4.267c0-5.12-3.413-8.533-8.533-8.533s-8.533,3.413-8.533,8.533v4.267
				C365.933,170.52,369.347,173.933,374.467,173.933z"/>
			<path d="M365.933,204.653c0,5.12,3.413,8.533,8.533,8.533S383,208.92,383,204.653v-9.387c0-5.12-3.413-8.533-8.533-8.533
				s-8.533,3.413-8.533,8.533V204.653z"/>
			<path d="M365.933,237.933c0,5.12,3.413,8.533,8.533,8.533s8.533-3.413,8.533-8.533v-4.267c0-5.12-3.413-8.533-8.533-8.533
				s-8.533,3.413-8.533,8.533V237.933z"/>
		</g>
	</g>
</g>
<g>
</g>
<g>
</g>
<g>
</g>
<g>
</g>
<g>
</g>
<g>
</g>
<g>
</g>
<g>
</g>
<g>
</g>
<g>
</g>
<g>
</g>
<g>
</g>
<g>
</g>
<g>
</g>
<g>
</g>
</symbol></svg>